<mxfile host="app.diagrams.net" agent="Mozilla/5.0 (Windows NT 10.0; Win64; x64) AppleWebKit/537.36 (KHTML, like Gecko) Chrome/129.0.0.0 Safari/537.36" version="24.8.0">
  <diagram name="Page-1" id="q8BxAm_sOzKsZmOyvroV">
    <mxGraphModel dx="794" dy="446" grid="1" gridSize="10" guides="1" tooltips="1" connect="1" arrows="1" fold="1" page="1" pageScale="1" pageWidth="850" pageHeight="1100" math="0" shadow="0">
      <root>
        <mxCell id="0" />
        <mxCell id="1" parent="0" />
        <mxCell id="1jBT1yOzD8v8w3udIk85-7" value="" style="rounded=0;whiteSpace=wrap;html=1;dashed=1;strokeColor=none;fillColor=#fff2cc;" parent="1" vertex="1">
          <mxGeometry x="138" y="30" width="270" height="130" as="geometry" />
        </mxCell>
        <mxCell id="1jBT1yOzD8v8w3udIk85-4" value="" style="rounded=0;whiteSpace=wrap;html=1;fillColor=#dae8fc;dashed=1;strokeColor=none;" parent="1" vertex="1">
          <mxGeometry x="408" y="30" width="180" height="130" as="geometry" />
        </mxCell>
        <mxCell id="1jBT1yOzD8v8w3udIk85-5" value="" style="rounded=0;whiteSpace=wrap;html=1;fillColor=#f5f5f5;dashed=1;strokeColor=#666666;fontColor=#333333;strokeWidth=0;" parent="1" vertex="1">
          <mxGeometry x="522" y="40.5" width="60" height="110" as="geometry" />
        </mxCell>
        <mxCell id="1jBT1yOzD8v8w3udIk85-13" value="" style="sketch=0;points=[[0,0,0],[0.25,0,0],[0.5,0,0],[0.75,0,0],[1,0,0],[0,1,0],[0.25,1,0],[0.5,1,0],[0.75,1,0],[1,1,0],[0,0.25,0],[0,0.5,0],[0,0.75,0],[1,0.25,0],[1,0.5,0],[1,0.75,0]];outlineConnect=0;fontColor=#232F3E;fillColor=#8C4FFF;strokeColor=#ffffff;dashed=0;verticalLabelPosition=bottom;verticalAlign=top;align=center;html=1;fontSize=12;fontStyle=0;aspect=fixed;shape=mxgraph.aws4.resourceIcon;resIcon=mxgraph.aws4.api_gateway;" parent="1" vertex="1">
          <mxGeometry x="446" y="67" width="40" height="40" as="geometry" />
        </mxCell>
        <mxCell id="1jBT1yOzD8v8w3udIk85-16" value="" style="verticalLabelPosition=bottom;verticalAlign=top;html=1;shape=mxgraph.infographic.shadedCube;isoAngle=15;fillColor=#10739E;strokeColor=none;" parent="1" vertex="1">
          <mxGeometry x="534" y="66.4" width="40" height="40" as="geometry" />
        </mxCell>
        <mxCell id="1jBT1yOzD8v8w3udIk85-20" value="" style="endArrow=classic;html=1;rounded=0;entryX=0.265;entryY=0.313;entryDx=0;entryDy=0;entryPerimeter=0;strokeColor=#050505;" parent="1" edge="1">
          <mxGeometry width="50" height="50" relative="1" as="geometry">
            <mxPoint x="500" y="87" as="sourcePoint" />
            <mxPoint x="521" y="87" as="targetPoint" />
          </mxGeometry>
        </mxCell>
        <mxCell id="1jBT1yOzD8v8w3udIk85-25" value="API Gateway" style="text;html=1;align=center;verticalAlign=middle;whiteSpace=wrap;rounded=0;fontSize=7;" parent="1" vertex="1">
          <mxGeometry x="446.5" y="112.06" width="40" height="20" as="geometry" />
        </mxCell>
        <mxCell id="1jBT1yOzD8v8w3udIk85-26" value="1N" style="text;html=1;align=center;verticalAlign=middle;whiteSpace=wrap;rounded=0;fontSize=7;" parent="1" vertex="1">
          <mxGeometry x="533.5" y="105.06" width="40" height="20" as="geometry" />
        </mxCell>
        <mxCell id="1jBT1yOzD8v8w3udIk85-28" value="" style="rounded=0;whiteSpace=wrap;html=1;fillColor=none;dashed=1;strokeColor=#7EA6E0;strokeWidth=0;" parent="1" vertex="1">
          <mxGeometry x="438" y="40" width="60" height="110" as="geometry" />
        </mxCell>
        <mxCell id="1jBT1yOzD8v8w3udIk85-29" value="6E" style="text;html=1;align=center;verticalAlign=middle;whiteSpace=wrap;rounded=0;fontSize=7;" parent="1" vertex="1">
          <mxGeometry x="445.5" y="45.06" width="40" height="20" as="geometry" />
        </mxCell>
        <mxCell id="ynRshE6p7bdk2yIAgoE8-2" value="" style="group" vertex="1" connectable="0" parent="1">
          <mxGeometry x="152" y="36.06" width="283" height="115.94" as="geometry" />
        </mxCell>
        <mxCell id="1jBT1yOzD8v8w3udIk85-9" value="" style="image;sketch=0;aspect=fixed;html=1;points=[];align=center;fontSize=12;image=img/lib/mscae/App_Service_Mobile_App.svg;" parent="ynRshE6p7bdk2yIAgoE8-2" vertex="1">
          <mxGeometry x="8" y="84.51999999999998" width="18" height="26.48" as="geometry" />
        </mxCell>
        <mxCell id="1jBT1yOzD8v8w3udIk85-10" value="" style="sketch=0;html=1;aspect=fixed;strokeColor=none;shadow=0;fillColor=#3B8DF1;verticalAlign=top;labelPosition=center;verticalLabelPosition=bottom;shape=mxgraph.gcp2.gear_load" parent="ynRshE6p7bdk2yIAgoE8-2" vertex="1">
          <mxGeometry x="79" y="42.94" width="40" height="36.8" as="geometry" />
        </mxCell>
        <mxCell id="1jBT1yOzD8v8w3udIk85-11" value="" style="sketch=0;outlineConnect=0;fontColor=#232F3E;gradientColor=none;fillColor=#7AA116;strokeColor=none;dashed=0;verticalLabelPosition=bottom;verticalAlign=top;align=center;html=1;fontSize=12;fontStyle=0;aspect=fixed;pointerEvents=1;shape=mxgraph.aws4.iot_analytics_data_store;" parent="ynRshE6p7bdk2yIAgoE8-2" vertex="1">
          <mxGeometry x="173" y="1.9399999999999977" width="27" height="39.03" as="geometry" />
        </mxCell>
        <mxCell id="1jBT1yOzD8v8w3udIk85-12" value="" style="outlineConnect=0;dashed=0;verticalLabelPosition=bottom;verticalAlign=top;align=center;html=1;shape=mxgraph.aws3.worker;fillColor=#D9A741;gradientColor=none;" parent="ynRshE6p7bdk2yIAgoE8-2" vertex="1">
          <mxGeometry x="168.5" y="75.94" width="36" height="40" as="geometry" />
        </mxCell>
        <mxCell id="1jBT1yOzD8v8w3udIk85-14" value="" style="endArrow=classic;html=1;rounded=0;strokeColor=#050505;" parent="ynRshE6p7bdk2yIAgoE8-2" edge="1">
          <mxGeometry width="50" height="50" relative="1" as="geometry">
            <mxPoint x="17" y="80.94" as="sourcePoint" />
            <mxPoint x="17" y="52.94" as="targetPoint" />
          </mxGeometry>
        </mxCell>
        <mxCell id="1jBT1yOzD8v8w3udIk85-15" value="" style="endArrow=classic;html=1;rounded=0;entryX=0.265;entryY=0.313;entryDx=0;entryDy=0;entryPerimeter=0;strokeColor=#050505;" parent="ynRshE6p7bdk2yIAgoE8-2" edge="1">
          <mxGeometry width="50" height="50" relative="1" as="geometry">
            <mxPoint x="44" y="33.94" as="sourcePoint" />
            <mxPoint x="78" y="52.94" as="targetPoint" />
          </mxGeometry>
        </mxCell>
        <mxCell id="1jBT1yOzD8v8w3udIk85-17" value="" style="endArrow=classic;html=1;rounded=0;entryX=0.265;entryY=0.313;entryDx=0;entryDy=0;entryPerimeter=0;strokeColor=#050505;" parent="ynRshE6p7bdk2yIAgoE8-2" edge="1">
          <mxGeometry width="50" height="50" relative="1" as="geometry">
            <mxPoint x="133" y="43.94" as="sourcePoint" />
            <mxPoint x="167" y="29.939999999999998" as="targetPoint" />
          </mxGeometry>
        </mxCell>
        <mxCell id="1jBT1yOzD8v8w3udIk85-18" value="" style="endArrow=classic;html=1;rounded=0;entryX=0.265;entryY=0.313;entryDx=0;entryDy=0;entryPerimeter=0;strokeColor=#050505;" parent="ynRshE6p7bdk2yIAgoE8-2" edge="1">
          <mxGeometry width="50" height="50" relative="1" as="geometry">
            <mxPoint x="132" y="68.94" as="sourcePoint" />
            <mxPoint x="166" y="77.94" as="targetPoint" />
          </mxGeometry>
        </mxCell>
        <mxCell id="1jBT1yOzD8v8w3udIk85-19" value="" style="endArrow=classic;html=1;rounded=0;entryX=0.265;entryY=0.313;entryDx=0;entryDy=0;entryPerimeter=0;strokeColor=#050505;" parent="ynRshE6p7bdk2yIAgoE8-2" edge="1">
          <mxGeometry width="50" height="50" relative="1" as="geometry">
            <mxPoint x="249" y="88.94" as="sourcePoint" />
            <mxPoint x="283" y="73.94" as="targetPoint" />
          </mxGeometry>
        </mxCell>
        <mxCell id="1jBT1yOzD8v8w3udIk85-21" value="1A" style="text;html=1;align=center;verticalAlign=middle;whiteSpace=wrap;rounded=0;fontSize=7;" parent="ynRshE6p7bdk2yIAgoE8-2" vertex="1">
          <mxGeometry x="24" y="3.4399999999999977" width="40" height="20" as="geometry" />
        </mxCell>
        <mxCell id="1jBT1yOzD8v8w3udIk85-22" value="Processor" style="text;html=1;align=center;verticalAlign=middle;whiteSpace=wrap;rounded=0;fontSize=7;" parent="ynRshE6p7bdk2yIAgoE8-2" vertex="1">
          <mxGeometry x="79" y="85.44" width="40" height="20" as="geometry" />
        </mxCell>
        <mxCell id="1jBT1yOzD8v8w3udIk85-23" value="Temp Data Store" style="text;html=1;align=center;verticalAlign=middle;whiteSpace=wrap;rounded=0;fontSize=7;" parent="ynRshE6p7bdk2yIAgoE8-2" vertex="1">
          <mxGeometry x="202" y="12.939999999999998" width="40" height="20" as="geometry" />
        </mxCell>
        <mxCell id="1jBT1yOzD8v8w3udIk85-24" value="Services" style="text;html=1;align=center;verticalAlign=middle;whiteSpace=wrap;rounded=0;fontSize=7;" parent="ynRshE6p7bdk2yIAgoE8-2" vertex="1">
          <mxGeometry x="206" y="80.94" width="34" height="20" as="geometry" />
        </mxCell>
        <mxCell id="1jBT1yOzD8v8w3udIk85-27" value="QR" style="text;html=1;align=center;verticalAlign=middle;whiteSpace=wrap;rounded=0;fontSize=7;" parent="ynRshE6p7bdk2yIAgoE8-2" vertex="1">
          <mxGeometry x="78.5" width="40" height="20" as="geometry" />
        </mxCell>
        <mxCell id="1jBT1yOzD8v8w3udIk85-8" value="" style="image;aspect=fixed;html=1;points=[];align=center;fontSize=12;image=img/lib/azure2/other/Reserved_Capacity_Groups.svg;" parent="ynRshE6p7bdk2yIAgoE8-2" vertex="1">
          <mxGeometry y="8.680000000000007" width="36" height="42.26" as="geometry" />
        </mxCell>
      </root>
    </mxGraphModel>
  </diagram>
</mxfile>
